<?xml version="1.0" encoding="UTF-8" standalone="no"?>
<!-- Created with Inkscape (http://www.inkscape.org/) -->

<svg
   xmlns:dc="http://purl.org/dc/elements/1.1/"
   xmlns:cc="http://creativecommons.org/ns#"
   xmlns:rdf="http://www.w3.org/1999/02/22-rdf-syntax-ns#"
   xmlns:svg="http://www.w3.org/2000/svg"
   xmlns="http://www.w3.org/2000/svg"
   xmlns:sodipodi="http://sodipodi.sourceforge.net/DTD/sodipodi-0.dtd"
   xmlns:inkscape="http://www.inkscape.org/namespaces/inkscape"
   width="75.237mm"
   height="75.237mm"
   viewBox="-3 0 74.237 75.237"
   version="1.1"
   id="svg8"
   inkscape:version="0.92.3 (2405546, 2018-03-11)"
   sodipodi:docname="NerdberglogoAntrag.svg"
   inkscape:export-filename="C:\Users\Johnny\Google Drive\Projekte\Nerdberg\Logo\Nerdberglogo shirt.png"
   inkscape:export-xdpi="350"
   inkscape:export-ydpi="350">
  <defs
     id="defs2">
    <circle
       style="fill:none;fill-opacity:1;stroke:none;stroke-width:1.14701259;stroke-miterlimit:4;stroke-dasharray:none;stroke-opacity:1"
       id="path828-67"
       cx="-402.87079"
       cy="368.85355"
       inkscape:export-xdpi="96"
       inkscape:export-ydpi="96"
       transform="rotate(-151.14652)"
       r="134.12065" />
  </defs>
  <sodipodi:namedview
     id="base"
     pagecolor="#ffffff"
     bordercolor="#666666"
     borderopacity="1.0"
     inkscape:pageopacity="0.0"
     inkscape:pageshadow="2"
     inkscape:zoom="1.4"
     inkscape:cx="203.26488"
     inkscape:cy="7.3272777"
     inkscape:document-units="mm"
     inkscape:current-layer="layer1"
     showgrid="false"
     inkscape:window-width="1718"
     inkscape:window-height="1368"
     inkscape:window-x="1713"
     inkscape:window-y="0"
     inkscape:window-maximized="0" />
  <metadata
     id="metadata5">
    <rdf:RDF>
      <cc:Work
         rdf:about="">
        <dc:format>image/svg+xml</dc:format>
        <dc:type
           rdf:resource="http://purl.org/dc/dcmitype/StillImage" />
        <dc:title></dc:title>
      </cc:Work>
    </rdf:RDF>
  </metadata>
  <g
     inkscape:groupmode="layer"
     id="layer2"
     inkscape:label="backround"
     transform="translate(-64.157869,-76.669283)" />
  <g
     inkscape:label="Ebene 1"
     inkscape:groupmode="layer"
     id="layer1"
     transform="translate(-64.157869,-76.669283)">

    <path
       style="fill:#f2d6eb;stroke-width:0.0788596;fill-opacity:1;stroke:#f2d6eb;stroke-opacity:1"
       d="m 99.919655,146.86384 c -1.41763,-0.37562 -2.47904,-1.10846 -2.7833,-1.92172 -0.54429,-1.45474 -0.78333,-3.19616 -0.84112,-6.12799 -0.0482,-2.44579 0.0191,-4.33348 0.33012,-9.266 0.52158,-8.27095 0.44326,-10.60589 -0.39256,-11.70169 -0.49722,-0.6519 -1.506606,-1.15384 -2.315151,-1.15127 -0.861783,0.002 -2.08527,0.47051 -2.490602,0.95222 -0.304674,0.36208 -0.551698,0.88294 -0.782368,1.64955 -0.570842,1.89725 -0.554128,1.76784 -1.824202,14.1153 -0.997135,9.69403 -1.334067,12.746 -1.367968,12.39153 0.0551,-5.33099 1.160737,-18.72601 1.753275,-23.77195 0.177787,-1.51412 0.604881,-3.10694 1.131019,-4.15338 0.794192,-1.57955 2.01882,-2.28733 3.777981,-2.08744 1.953639,0.22198 3.187333,1.13113 3.556433,2.8857 0.29077,1.38221 0.30365,3.74467 0.0365,7.56747 -0.3112,4.45412 -0.329503,5.54621 -0.412113,7.38211 -0.10084,2.24061 -0.191334,6.45485 -0.04683,7.70804 0.22273,1.93155 0.258332,2.94047 1.458816,4.06854 0.701736,0.65941 1.394535,0.75027 2.825395,0.8087 1.20467,0.0491 1.85679,-0.20263 2.77562,-0.68068 1.11944,-0.5824 1.79998,-1.50692 2.17621,-2.18985 l 0.0507,-0.28353 -0.45337,-0.0911 c -0.59311,-0.11906 -0.66366,-0.11531 -0.66366,0.0356 0,0.2027 -0.44303,1.07477 -0.73072,1.43833 -1.01058,1.27704 -3.20679,1.63944 -4.864431,0.80267 -1.02415,-0.51698 -1.55828,-1.27857 -1.77121,-2.52546 -0.34093,-1.99661 -0.36265,-7.07049 -0.0504,-11.78951 0.55232,-8.34765 0.58787,-10.60202 0.19481,-12.35344 -0.30341,-1.35191 -0.93581,-2.11734 -2.32318,-2.81191 -0.998971,-0.50012 -1.462307,-0.54519 -2.289428,-0.4875 -2.309079,0.16103 -3.143002,1.26207 -3.77898,2.47232 -0.706239,1.34396 -0.644882,1.27887 -1.793652,11.84924 -0.972671,8.9503 -1.401341,11.8764 -1.401341,11.8764 -0.02584,0.0251 0.107375,-1.73026 0.06428,-2.12643 0.752638,-8.90726 1.498668,-17.28282 1.861158,-19.76492 0.161925,-1.10865 0.441501,-1.81129 1.072759,-2.6959 2.121056,-2.9724 6.395809,-2.97032 8.518319,0.004 0.84326,1.18172 0.95083,1.8399 0.87647,5.36346 -0.0492,2.33177 -0.17513,4.82046 -0.40569,8.01893 -0.39306,5.45225 -0.28413,11.53724 0.23927,13.36606 0.14629,0.51114 0.52309,0.85208 1.450436,1.31229 0.65953,0.32732 0.67071,0.32972 1.53941,0.32972 0.8306,0 0.90193,-0.0131 1.40366,-0.26023 1.05824,-0.52097 1.86221,-1.51933 1.85739,-2.30653 0,-0.19307 0.0895,-1.04304 0.20158,-1.8888 0.26202,-1.97797 0.62494,-5.30351 0.87349,-8.00424 0.17241,-1.87307 0.39575,-3.31509 1.85665,-11.98667 0.9134,-5.4216 1.67972,-9.95072 1.70297,-10.06472 0.0349,-0.171 0.009,-0.21574 -0.15036,-0.25562 -0.10592,-0.0266 -0.21204,-0.099 -0.23579,-0.16087 -0.0785,-0.20447 0.46577,-3.88721 1.63628,-11.072102 0.46003,-2.82375 0.56658,-3.629625 0.50802,-3.841725 -0.0408,-0.147563 -0.0816,-0.449869 -0.0909,-0.671663 -0.0188,-0.452119 0.12047,-0.627244 0.4987,-0.627244 0.37164,0 0.46207,-0.206137 0.64377,-1.467506 0.093,-0.645862 0.20287,-1.218656 0.24407,-1.272881 0.048,-0.06319 0.28352,-0.09862 0.65522,-0.09862 0.53741,0 0.58325,-0.01312 0.62011,-0.177375 0.0219,-0.09769 0.20377,-1.113188 0.40419,-2.256863 0.26965,-1.538869 0.34408,-2.124 0.28629,-2.250806 -0.0577,-0.126563 0.004,-0.623625 0.23744,-1.902994 0.26436,-1.450875 0.34475,-1.760906 0.49602,-1.912387 0.17804,-0.178313 0.29691,-0.395457 0.54138,-0.988932 0.11728,-0.2847 0.13948,-0.299118 0.38209,-0.247987 0.14167,0.02981 0.28033,0.07725 0.30815,0.105187 0.0278,0.02794 0.0657,0.358744 0.0841,0.735094 0.0184,0.376331 0.0749,0.734044 0.12544,0.794906 0.071,0.0855 0.0217,0.510525 -0.21691,1.8708 -0.28326,1.6149 -0.34635,1.82625 -0.57094,1.912632 -0.0465,0.01875 -0.85229,4.296244 -0.85229,4.5252 0,0.04425 0.19395,0.141375 0.43103,0.21615 0.23706,0.07481 0.44627,0.161062 0.46489,0.191831 0.0186,0.03075 -0.0516,0.552788 -0.15594,1.159988 -0.24822,1.443937 -0.23525,1.594668 0.15587,1.812918 0.5439,0.303469 0.549,0.4503 0.0456,1.31115 l -0.30505,0.5217 -0.63889,3.855019 c -0.78401,4.73081 -1.80292,10.23478 -1.93393,10.44673 -0.0244,0.0396 -0.14813,0.072 -0.27485,0.072 -0.17464,0 -0.24004,0.0429 -0.2701,0.17738 -0.0217,0.0977 -0.76575,4.59662 -1.65314,9.99784 -1.49275,9.08596 -1.65497,9.98833 -2.169,12.06553 -0.80323,3.24586 -1.81908,8.49967 -1.81908,9.40793 0,0.11156 -0.0444,0.23109 -0.0986,0.26576 -0.0542,0.0347 -0.16402,0.25826 -0.24404,0.4968 -0.5207,1.55244 -1.81533,2.82255 -3.3948,3.33058 -0.35791,0.11512 -0.77517,0.1633 -1.62503,0.1873 -1.02436,0.0291 -1.21927,0.0131 -1.871236,-0.1603 z m 7.128045,-5.38003 c 0.30985,-2.15696 1.19159,-6.41529 1.91218,-9.23475 l 0.22673,-0.88717 -0.36602,7e-5 -0.36604,6e-5 -0.37298,1.16312 c -0.62668,1.95435 -1.16226,4.34621 -1.79943,8.03615 l -0.32308,1.87108 0.18313,0.13875 c 0.1635,0.12394 0.5974,0.22615 0.69282,0.16331 0.02,-0.0131 0.1158,-0.57598 0.21269,-1.25058 z m 2.24401,-10.63462 c 0.13528,-0.54649 3.24798,-19.67777 3.20812,-19.71765 -0.024,-0.024 -0.14531,-0.051 -0.26956,-0.0598 -0.22511,-0.0169 -0.22666,-0.0131 -0.48213,0.96958 -0.40085,1.54185 -0.91306,3.97121 -1.4798,7.01852 -0.54646,2.93818 -2.01094,11.54529 -2.01094,11.81882 0,0.13312 0.0614,0.16406 0.37458,0.18943 0.5667,0.0457 0.59669,0.0358 0.65973,-0.21887 z m 3.85499,-20.01792 c 0,-0.015 0.10721,-0.5561 0.23828,-1.2026 0.54793,-2.70315 1.24973,-6.71286 2.15603,-12.318246 l 0.1058,-0.654413 -0.28402,-0.11925 c -0.38574,-0.162 -1.71372,-0.503925 -1.95715,-0.503925 -0.14094,0 -0.18429,0.033 -0.15244,0.116063 0.0798,0.207825 -2.09409,10.463681 -2.81873,13.298461 -0.10416,0.40747 -0.20189,0.79153 -0.2172,0.85348 -0.031,0.12543 0.11077,0.15993 1.62825,0.39628 0.95235,0.14831 1.30118,0.18431 1.30118,0.13425 z m 2.95876,-14.926477 c 0.31586,-0.538969 0.25794,-0.667332 -0.39582,-0.877388 -0.30362,-0.0975 -0.66735,-0.199069 -0.80831,-0.225637 -0.24235,-0.04575 -0.2563,-0.03563 -0.2563,0.18525 0,0.349462 -0.15348,0.722456 -0.33788,0.821156 -0.14327,0.07669 -0.0819,0.111187 0.49379,0.277331 0.36153,0.104438 0.71353,0.221213 0.7822,0.259631 0.15963,0.08944 0.26288,0.0019 0.52232,-0.4404 z m -0.56412,-1.33005 c -0.0989,-0.257775 -2.84925,-0.734832 -2.98358,-0.5175 -0.0324,0.0525 0.0592,0.08306 0.24913,0.08325 0.56871,7.31e-4 2.02745,0.288768 2.76227,0.545681 0.01,0.0038 -0.003,-0.04687 -0.0278,-0.111375 z m -0.88941,-0.809175 c 0.60112,-0.503944 0.82842,-0.793875 0.96597,-1.232138 0.0797,-0.253819 0.11516,-0.490087 0.0789,-0.525075 -0.23298,-0.22455 -2.59486,-0.574425 -2.70246,-0.400331 -0.0672,0.10875 -0.35462,2.054044 -0.30918,2.092669 0.0309,0.02625 1.24466,0.1725 1.58533,0.1911 0.11925,0.0056 0.29094,-0.05025 0.38147,-0.126188 z m 0.7815,-4.679307 c 0.21453,-1.187081 0.3624,-2.185969 0.32859,-2.219775 -0.0338,-0.03375 -0.20137,-0.07012 -0.37234,-0.08062 0,0 -0.0413,0.08419 -0.0349,0.203738 0,0.05756 -0.0539,0.488175 -0.11966,0.957 -0.25933,1.847381 -0.36852,3.47475 -0.22342,3.329662 0.0174,-0.01688 0.20723,-1.002975 0.42176,-2.190037 z m 1.02529,-4.126369 c 0.13401,-0.776943 0.22738,-1.455093 0.20745,-1.506993 -0.0647,-0.16875 -1.15158,-0.371157 -1.15496,-0.215063 0,0.03244 -0.12482,0.71565 -0.27578,1.518038 -0.15098,0.802387 -0.27459,1.521 -0.27471,1.5969 -1.9e-4,0.105937 0.0686,0.1395 0.29547,0.144 0.16266,0.0038 0.41993,0.05138 0.57173,0.106875 0.34358,0.125625 0.31092,0.210637 0.6308,-1.643775 z m 0.0789,-2.530368 c 0,-0.767232 -0.1278,-0.7785 -0.49436,-0.04369 l -0.27327,0.5478 0.24581,0.03113 c 0.56028,0.07069 0.52182,0.110063 0.52182,-0.535181 z"
       id="path826-3"
       inkscape:connector-curvature="0"
       sodipodi:nodetypes="ccssccccscscsssscscccccscscscssssccccsssccsccscscccsccsccscsccccccccscscccsccscscsssscccccsscccscccccsccccscssccccsccssscccccccccccccccccccccccccccccccccccscssccscssccss"
       inkscape:export-xdpi="350"
       inkscape:export-ydpi="350" />
  </g>
</svg>
